<svg version="1.1" id="Layer_1" xmlns="http://www.w3.org/2000/svg" xmlns:xlink="http://www.w3.org/1999/xlink" x="0px" y="0px"
	 width="100%" viewBox="0 0 1000 1000" enable-background="new 0 0 1000 1000" xml:space="preserve">
<path fill="#373737" opacity="1.000000" stroke="none" 
	d="
M466.000000,1001.000000 
	C310.666656,1001.000000 155.833328,1001.000000 1.000000,1001.000000 
	C1.000000,667.666687 1.000000,334.333344 1.000000,1.000000 
	C334.333344,1.000000 667.666687,1.000000 1001.000000,1.000000 
	C1001.000000,334.333344 1001.000000,667.666687 1001.000000,1001.000000 
	C822.833313,1001.000000 644.666687,1001.000000 466.000000,1001.000000 
M786.069275,745.596130 
	C806.410522,730.606201 817.282043,710.985962 817.209534,685.213074 
	C816.970886,600.398376 817.075134,515.582642 817.120422,430.767334 
	C817.125610,421.038269 814.815674,411.868103 810.329834,403.435852 
	C796.039551,376.573883 773.983215,362.404144 743.025635,362.565125 
	C700.202515,362.787811 657.377258,362.572388 614.553345,362.705017 
	C610.955444,362.716156 608.976562,361.840668 607.242920,358.486633 
	C597.973755,340.553101 584.765442,325.918671 568.339722,314.303833 
	C555.627563,305.314941 541.666992,298.804749 526.007019,295.361481 
	C526.007019,293.549927 526.007019,291.922211 526.007019,290.294495 
	C526.007019,272.631561 525.932678,254.967926 526.097961,237.306549 
	C526.119446,235.007950 526.887939,232.402100 528.143250,230.483414 
	C533.735046,221.936417 534.698608,212.481247 532.304016,203.122131 
	C527.194885,183.153854 507.781036,172.812408 487.710449,179.350830 
	C468.220093,185.700241 458.710083,208.032242 468.226624,226.085876 
	C472.190430,233.605530 472.692993,240.713028 472.691010,248.459335 
	C472.687408,262.456390 472.690033,276.453430 472.690033,290.450470 
	C472.690033,292.082764 472.690002,293.715088 472.690002,295.372833 
	C471.045013,295.902222 469.813385,296.361420 468.548859,296.696381 
	C434.002197,305.847565 408.457825,326.541809 391.266571,357.592743 
	C389.037933,361.618134 386.794800,362.726196 382.492157,362.719299 
	C338.669983,362.649109 294.841064,362.357269 251.027145,363.009430 
	C216.915573,363.517181 185.431137,395.635376 184.920074,429.758148 
	C184.485931,458.745544 184.684845,487.743225 184.694244,516.736328 
	C184.713120,574.889893 184.695572,633.044006 184.996262,691.196350 
	C185.027435,697.225708 186.403610,703.480713 188.346130,709.228699 
	C198.329620,738.770508 227.486923,758.377930 258.218719,758.285706 
	C420.183044,757.799866 582.149719,757.974731 744.115173,758.194946 
	C759.378357,758.215698 772.910278,754.208374 786.069275,745.596130 
z"/>
<path fill="#FDFDFD" opacity="1.000000" stroke="none" 
	d="
M785.776367,745.806213 
	C772.910278,754.208374 759.378357,758.215698 744.115173,758.194946 
	C582.149719,757.974731 420.183044,757.799866 258.218719,758.285706 
	C227.486923,758.377930 198.329620,738.770508 188.346130,709.228699 
	C186.403610,703.480713 185.027435,697.225708 184.996262,691.196350 
	C184.695572,633.044006 184.713120,574.889893 184.694244,516.736328 
	C184.684845,487.743225 184.485931,458.745544 184.920074,429.758148 
	C185.431137,395.635376 216.915573,363.517181 251.027145,363.009430 
	C294.841064,362.357269 338.669983,362.649109 382.492157,362.719299 
	C386.794800,362.726196 389.037933,361.618134 391.266571,357.592743 
	C408.457825,326.541809 434.002197,305.847565 468.548859,296.696381 
	C469.813385,296.361420 471.045013,295.902222 472.690002,295.372833 
	C472.690002,293.715088 472.690033,292.082764 472.690033,290.450470 
	C472.690033,276.453430 472.687408,262.456390 472.691010,248.459335 
	C472.692993,240.713028 472.190430,233.605530 468.226624,226.085876 
	C458.710083,208.032242 468.220093,185.700241 487.710449,179.350830 
	C507.781036,172.812408 527.194885,183.153854 532.304016,203.122131 
	C534.698608,212.481247 533.735046,221.936417 528.143250,230.483414 
	C526.887939,232.402100 526.119446,235.007950 526.097961,237.306549 
	C525.932678,254.967926 526.007019,272.631561 526.007019,290.294495 
	C526.007019,291.922211 526.007019,293.549927 526.007019,295.361481 
	C541.666992,298.804749 555.627563,305.314941 568.339722,314.303833 
	C584.765442,325.918671 597.973755,340.553101 607.242920,358.486633 
	C608.976562,361.840668 610.955444,362.716156 614.553345,362.705017 
	C657.377258,362.572388 700.202515,362.787811 743.025635,362.565125 
	C773.983215,362.404144 796.039551,376.573883 810.329834,403.435852 
	C814.815674,411.868103 817.125610,421.038269 817.120422,430.767334 
	C817.075134,515.582642 816.970886,600.398376 817.209534,685.213074 
	C817.282043,710.985962 806.410522,730.606201 785.776367,745.806213 
M323.366089,667.274780 
	C334.266479,672.432739 345.823029,674.180054 357.785095,674.175415 
	C452.081879,674.138672 546.378723,674.187073 640.675354,674.081421 
	C646.961792,674.074341 653.408264,673.728638 659.506348,672.338501 
	C695.781433,664.069458 719.760559,634.098633 720.034912,596.880859 
	C720.212952,572.724854 720.114807,548.566284 720.024597,524.409363 
	C720.008484,520.097961 719.631958,515.761841 719.072327,511.482788 
	C714.512512,476.616241 682.218567,447.148132 647.116577,447.042694 
	C548.489746,446.746460 449.861542,446.936462 351.233887,446.947906 
	C349.404999,446.948120 347.553009,446.955627 345.750641,447.222290 
	C305.231384,453.217163 278.280609,484.300720 278.116394,525.331299 
	C278.021698,548.988403 277.938599,572.647583 278.139679,596.303406 
	C278.417236,628.958008 294.068756,652.088928 323.366089,667.274780 
M698.499573,735.490601 
	C711.664917,735.490601 724.831238,735.583008 737.995178,735.447266 
	C743.645630,735.388977 749.416931,735.500916 754.917419,734.428467 
	C778.960327,729.740723 794.769714,709.201782 794.781433,682.991455 
	C794.818115,601.336426 794.816406,519.681396 794.739624,438.026428 
	C794.735291,433.390961 794.396729,428.653717 793.412476,424.138519 
	C788.359131,400.957916 768.175049,385.274017 743.218506,385.202850 
	C702.724548,385.087402 662.230103,385.168518 621.735840,385.186096 
	C620.505432,385.186615 619.275085,385.403656 618.632202,385.464325 
	C619.695251,398.546814 620.724792,411.216553 621.763062,423.994080 
	C629.074036,423.994080 636.402222,423.993805 643.730347,423.994141 
	C698.375122,423.996674 742.947815,468.450134 743.001526,523.025208 
	C743.026489,548.354919 743.026794,573.684631 743.001099,599.014343 
	C742.947449,652.006226 698.095032,696.834656 645.139526,696.836914 
	C548.153320,696.841125 451.167114,696.777344 354.181061,696.893860 
	C336.562225,696.914978 320.152618,692.702942 305.176208,683.704895 
	C275.516663,665.884827 257.738556,639.835266 255.980255,605.024658 
	C254.544693,576.603699 255.528854,548.058167 255.557755,519.568054 
	C255.561966,515.423889 255.950821,511.236084 256.619598,507.143280 
	C264.606689,458.263184 308.182098,422.558105 356.531006,423.966125 
	C363.457916,424.167877 370.395813,423.994080 377.085663,423.994080 
	C377.862885,410.719666 378.603729,398.066132 379.348663,385.342834 
	C379.070007,385.306396 378.580200,385.186310 378.090363,385.186188 
	C337.762787,385.176849 297.434479,385.059113 257.108459,385.309448 
	C251.389328,385.344971 245.378433,386.349670 240.021805,388.318481 
	C219.389236,395.901947 207.221359,414.272644 207.208466,437.176453 
	C207.162247,519.331421 207.190094,601.486389 207.198166,683.641357 
	C207.198334,685.306519 207.240158,686.975891 207.360382,688.636230 
	C209.314423,715.621338 230.607590,735.489929 257.562164,735.490112 
	C404.207947,735.491028 550.853760,735.490540 698.499573,735.490601 
M593.600159,384.094849 
	C593.425781,383.627289 593.262085,383.155426 593.075439,382.692780 
	C577.910278,345.093933 551.113831,321.078430 510.330292,316.457886 
	C471.855927,312.098999 440.673187,326.949371 417.721680,358.312103 
	C403.642609,377.550812 398.800201,399.342133 400.479401,423.155518 
	C466.351929,423.155518 532.020203,423.155518 597.786133,423.155518 
	C597.786133,416.682678 598.297119,410.486298 597.648010,404.413971 
	C596.944885,397.836670 595.160095,391.374939 593.600159,384.094849 
M495.610382,200.864395 
	C487.998322,204.758591 485.483826,211.937195 489.614960,217.980789 
	C492.833923,222.689911 498.647949,224.400726 503.674347,222.117828 
	C509.008636,219.695099 511.756073,213.865097 510.093964,208.495438 
	C508.295166,202.684280 503.136322,199.743393 495.610382,200.864395 
M495.275635,292.021790 
	C497.714539,292.424683 500.153442,292.827576 502.662750,293.242065 
	C502.662750,280.390991 502.662750,268.365082 502.662750,256.473633 
	C500.059998,256.473633 497.815735,256.473633 495.182434,256.473633 
	C495.182434,268.228760 495.182434,279.660828 495.275635,292.021790 
z"/>
<path fill="#373737" opacity="1.000000" stroke="none" 
	d="
M323.016205,667.129517 
	C294.068756,652.088928 278.417236,628.958008 278.139679,596.303406 
	C277.938599,572.647583 278.021698,548.988403 278.116394,525.331299 
	C278.280609,484.300720 305.231384,453.217163 345.750641,447.222290 
	C347.553009,446.955627 349.404999,446.948120 351.233887,446.947906 
	C449.861542,446.936462 548.489746,446.746460 647.116577,447.042694 
	C682.218567,447.148132 714.512512,476.616241 719.072327,511.482788 
	C719.631958,515.761841 720.008484,520.097961 720.024597,524.409363 
	C720.114807,548.566284 720.212952,572.724854 720.034912,596.880859 
	C719.760559,634.098633 695.781433,664.069458 659.506348,672.338501 
	C653.408264,673.728638 646.961792,674.074341 640.675354,674.081421 
	C546.378723,674.187073 452.081879,674.138672 357.785095,674.175415 
	C345.823029,674.180054 334.266479,672.432739 323.016205,667.129517 
M365.991699,544.785034 
	C365.989624,554.783875 366.462799,564.811340 365.864166,574.774353 
	C365.129517,587.001953 377.346436,597.016479 387.081879,597.409241 
	C402.798553,598.043274 411.779999,585.974426 411.880920,575.678101 
	C411.980560,565.513672 412.143402,555.340820 411.851868,545.183899 
	C411.496307,532.795410 401.647888,523.469666 389.216461,523.249756 
	C376.911316,523.032043 366.848907,531.964905 365.991699,544.785034 
M586.763000,564.498047 
	C587.012512,570.291260 586.315491,576.324951 587.713196,581.826477 
	C590.429749,592.519592 600.055908,597.850220 612.985352,597.080750 
	C622.300659,596.526367 631.661072,587.799622 631.977905,578.471863 
	C632.384216,566.509644 632.427429,554.510315 631.979736,542.551208 
	C631.575256,531.743591 620.978394,523.125977 609.251831,523.250610 
	C597.463196,523.376038 587.398987,532.164124 586.936890,543.037476 
	C586.647400,549.848083 586.805664,556.677734 586.763000,564.498047 
z"/>
<path fill="#383838" opacity="1.000000" stroke="none" 
	d="
M697.999512,735.490601 
	C550.853760,735.490540 404.207947,735.491028 257.562164,735.490112 
	C230.607590,735.489929 209.314423,715.621338 207.360382,688.636230 
	C207.240158,686.975891 207.198334,685.306519 207.198166,683.641357 
	C207.190094,601.486389 207.162247,519.331421 207.208466,437.176453 
	C207.221359,414.272644 219.389236,395.901947 240.021805,388.318481 
	C245.378433,386.349670 251.389328,385.344971 257.108459,385.309448 
	C297.434479,385.059113 337.762787,385.176849 378.090363,385.186188 
	C378.580200,385.186310 379.070007,385.306396 379.348663,385.342834 
	C378.603729,398.066132 377.862885,410.719666 377.085663,423.994080 
	C370.395813,423.994080 363.457916,424.167877 356.531006,423.966125 
	C308.182098,422.558105 264.606689,458.263184 256.619598,507.143280 
	C255.950821,511.236084 255.561966,515.423889 255.557755,519.568054 
	C255.528854,548.058167 254.544693,576.603699 255.980255,605.024658 
	C257.738556,639.835266 275.516663,665.884827 305.176208,683.704895 
	C320.152618,692.702942 336.562225,696.914978 354.181061,696.893860 
	C451.167114,696.777344 548.153320,696.841125 645.139526,696.836914 
	C698.095032,696.834656 742.947449,652.006226 743.001099,599.014343 
	C743.026794,573.684631 743.026489,548.354919 743.001526,523.025208 
	C742.947815,468.450134 698.375122,423.996674 643.730347,423.994141 
	C636.402222,423.993805 629.074036,423.994080 621.763062,423.994080 
	C620.724792,411.216553 619.695251,398.546814 618.632202,385.464325 
	C619.275085,385.403656 620.505432,385.186615 621.735840,385.186096 
	C662.230103,385.168518 702.724548,385.087402 743.218506,385.202850 
	C768.175049,385.274017 788.359131,400.957916 793.412476,424.138519 
	C794.396729,428.653717 794.735291,433.390961 794.739624,438.026428 
	C794.816406,519.681396 794.818115,601.336426 794.781433,682.991455 
	C794.769714,709.201782 778.960327,729.740723 754.917419,734.428467 
	C749.416931,735.500916 743.645630,735.388977 737.995178,735.447266 
	C724.831238,735.583008 711.664917,735.490601 697.999512,735.490601 
z"/>
<path fill="#373737" opacity="1.000000" stroke="none" 
	d="
M593.723633,384.478821 
	C595.160095,391.374939 596.944885,397.836670 597.648010,404.413971 
	C598.297119,410.486298 597.786133,416.682678 597.786133,423.155518 
	C532.020203,423.155518 466.351929,423.155518 400.479401,423.155518 
	C398.800201,399.342133 403.642609,377.550812 417.721680,358.312103 
	C440.673187,326.949371 471.855927,312.098999 510.330292,316.457886 
	C551.113831,321.078430 577.910278,345.093933 593.075439,382.692780 
	C593.262085,383.155426 593.425781,383.627289 593.723633,384.478821 
z"/>
<path fill="#3B3B3B" opacity="1.000000" stroke="none" 
	d="
M495.988831,200.767365 
	C503.136322,199.743393 508.295166,202.684280 510.093964,208.495438 
	C511.756073,213.865097 509.008636,219.695099 503.674347,222.117828 
	C498.647949,224.400726 492.833923,222.689911 489.614960,217.980789 
	C485.483826,211.937195 487.998322,204.758591 495.988831,200.767365 
z"/>
<path fill="#404040" opacity="1.000000" stroke="none" 
	d="
M495.229034,291.557343 
	C495.182434,279.660828 495.182434,268.228760 495.182434,256.473633 
	C497.815735,256.473633 500.059998,256.473633 502.662750,256.473633 
	C502.662750,268.365082 502.662750,280.390991 502.662750,293.242065 
	C500.153442,292.827576 497.714539,292.424683 495.229034,291.557343 
z"/>
<path fill="#FEFEFE" opacity="1.000000" stroke="none" 
	d="
M365.993774,544.324463 
	C366.848907,531.964905 376.911316,523.032043 389.216461,523.249756 
	C401.647888,523.469666 411.496307,532.795410 411.851868,545.183899 
	C412.143402,555.340820 411.980560,565.513672 411.880920,575.678101 
	C411.779999,585.974426 402.798553,598.043274 387.081879,597.409241 
	C377.346436,597.016479 365.129517,587.001953 365.864166,574.774353 
	C366.462799,564.811340 365.989624,554.783875 365.993774,544.324463 
z"/>
<path fill="#FEFEFE" opacity="1.000000" stroke="none" 
	d="
M586.762939,563.998413 
	C586.805664,556.677734 586.647400,549.848083 586.936890,543.037476 
	C587.398987,532.164124 597.463196,523.376038 609.251831,523.250610 
	C620.978394,523.125977 631.575256,531.743591 631.979736,542.551208 
	C632.427429,554.510315 632.384216,566.509644 631.977905,578.471863 
	C631.661072,587.799622 622.300659,596.526367 612.985352,597.080750 
	C600.055908,597.850220 590.429749,592.519592 587.713196,581.826477 
	C586.315491,576.324951 587.012512,570.291260 586.762939,563.998413 
z"/>
</svg>